# xmcd
#
# Track frame offsets:
#	150
#	18748
#	34648
#	48178
#	64306
#	78175
#	92335
#	110036
#	130955
#	145883
#	162458
#	179087
#	192220
#	212737
#
# Disc length: 3109 seconds
#
# Revision: 4186205173
# Processed by: cddbd v1.5.2PL0 Copyright (c) Steve Scherf et al.
# Submitted via: EZCDAudioConverter 9.0.0.1
#
DISCID=c60c230e
DTITLE=Midland - Let It Roll
DYEAR=2019
DGENRE=Country
TTITLE0=Let It Roll
TTITLE1=Fourteen Gears
TTITLE2=Mr. Lonely
TTITLE3=Cheatin' Songs
TTITLE4=Put The Hurt On Me
TTITLE5=I Love You, Goodbye
TTITLE6=Every Song's A Drinkin' Song
TTITLE7=21st Century Honky Tonk American Band
TTITLE8=Fast Hearts And Slow Towns
TTITLE9=Cheatin' By The Rules
TTITLE10=Playboys
TTITLE11=Lost In The Night
TTITLE12=Gettin' The Feel
TTITLE13=Roll Away
EXTD=
EXTT0=
EXTT1=
EXTT2=
EXTT3=
EXTT4=
EXTT5=
EXTT6=
EXTT7=
EXTT8=
EXTT9=
EXTT10=
EXTT11=
EXTT12=
EXTT13=
PLAYORDER=
